<mxfile host="app.diagrams.net" agent="Mozilla/5.0 (Windows NT 10.0; Win64; x64) AppleWebKit/537.36 (KHTML, like Gecko) Chrome/131.0.0.0 Safari/537.36" version="26.0.9">
  <diagram name="Page-1" id="X3Ov-jB1DibwKJysG7zp">
    <mxGraphModel dx="1970" dy="529" grid="1" gridSize="10" guides="1" tooltips="1" connect="1" arrows="1" fold="1" page="1" pageScale="1" pageWidth="850" pageHeight="1100" math="0" shadow="0">
      <root>
        <mxCell id="0" />
        <mxCell id="1" parent="0" />
        <mxCell id="9J3qdg5ghptIugSKDytH-1" value="user" style="whiteSpace=wrap;html=1;align=center;rounded=0;fillColor=#f8cecc;strokeColor=#b85450;gradientColor=#ea6b66;" parent="1" vertex="1">
          <mxGeometry x="-80" y="80" width="100" height="40" as="geometry" />
        </mxCell>
        <mxCell id="9J3qdg5ghptIugSKDytH-3" value="name" style="ellipse;whiteSpace=wrap;html=1;align=center;rounded=0;fillColor=#fff2cc;strokeColor=#d6b656;" parent="1" vertex="1">
          <mxGeometry y="20" width="100" height="30" as="geometry" />
        </mxCell>
        <mxCell id="9J3qdg5ghptIugSKDytH-4" value="user_id" style="ellipse;whiteSpace=wrap;html=1;align=center;fontStyle=4;rounded=0;fillColor=#fff2cc;strokeColor=#d6b656;" parent="1" vertex="1">
          <mxGeometry x="-140" y="150" width="90" height="20" as="geometry" />
        </mxCell>
        <mxCell id="9J3qdg5ghptIugSKDytH-7" value="address" style="ellipse;whiteSpace=wrap;html=1;align=center;rounded=0;fillColor=#fff2cc;strokeColor=#d6b656;" parent="1" vertex="1">
          <mxGeometry x="-10" y="160" width="80" height="20" as="geometry" />
        </mxCell>
        <mxCell id="9J3qdg5ghptIugSKDytH-10" value="" style="endArrow=none;html=1;rounded=0;exitX=0.25;exitY=0;exitDx=0;exitDy=0;entryX=0.25;entryY=0;entryDx=0;entryDy=0;" parent="1" source="9J3qdg5ghptIugSKDytH-1" target="9J3qdg5ghptIugSKDytH-1" edge="1">
          <mxGeometry width="50" height="50" relative="1" as="geometry">
            <mxPoint x="400" y="270" as="sourcePoint" />
            <mxPoint x="450" y="220" as="targetPoint" />
            <Array as="points">
              <mxPoint x="-60" y="40" />
            </Array>
          </mxGeometry>
        </mxCell>
        <mxCell id="9J3qdg5ghptIugSKDytH-11" value="" style="endArrow=none;html=1;rounded=0;entryX=0.35;entryY=0.94;entryDx=0;entryDy=0;entryPerimeter=0;" parent="1" target="9J3qdg5ghptIugSKDytH-3" edge="1">
          <mxGeometry width="50" height="50" relative="1" as="geometry">
            <mxPoint x="90" y="110" as="sourcePoint" />
            <mxPoint x="450" y="120" as="targetPoint" />
            <Array as="points">
              <mxPoint x="20" y="80" />
            </Array>
          </mxGeometry>
        </mxCell>
        <mxCell id="9J3qdg5ghptIugSKDytH-13" value="" style="endArrow=none;html=1;rounded=0;exitX=0.5;exitY=0;exitDx=0;exitDy=0;" parent="1" source="9J3qdg5ghptIugSKDytH-4" target="9J3qdg5ghptIugSKDytH-7" edge="1">
          <mxGeometry width="50" height="50" relative="1" as="geometry">
            <mxPoint x="400" y="170" as="sourcePoint" />
            <mxPoint x="450" y="120" as="targetPoint" />
            <Array as="points">
              <mxPoint x="-70" y="120" />
            </Array>
          </mxGeometry>
        </mxCell>
        <mxCell id="9J3qdg5ghptIugSKDytH-14" value="" style="endArrow=none;html=1;rounded=0;exitX=0;exitY=0.5;exitDx=0;exitDy=0;" parent="1" source="9J3qdg5ghptIugSKDytH-17" edge="1">
          <mxGeometry width="50" height="50" relative="1" as="geometry">
            <mxPoint x="140" y="50" as="sourcePoint" />
            <mxPoint x="140" y="20" as="targetPoint" />
            <Array as="points">
              <mxPoint x="100" y="30" />
            </Array>
          </mxGeometry>
        </mxCell>
        <mxCell id="9J3qdg5ghptIugSKDytH-16" value="first_name" style="ellipse;whiteSpace=wrap;html=1;align=center;rounded=0;fillColor=#60a917;strokeColor=#2D7600;fontColor=#ffffff;" parent="1" vertex="1">
          <mxGeometry x="130" y="10" width="100" height="20" as="geometry" />
        </mxCell>
        <mxCell id="9J3qdg5ghptIugSKDytH-17" value="middle_name" style="ellipse;whiteSpace=wrap;html=1;align=center;rounded=0;fillColor=#60a917;fontColor=#ffffff;strokeColor=#2D7600;" parent="1" vertex="1">
          <mxGeometry x="140" y="50" width="100" height="20" as="geometry" />
        </mxCell>
        <mxCell id="9J3qdg5ghptIugSKDytH-18" value="last_name" style="ellipse;whiteSpace=wrap;html=1;align=center;rounded=0;fillColor=#60a917;fontColor=#ffffff;strokeColor=#2D7600;" parent="1" vertex="1">
          <mxGeometry x="140" y="80" width="90" height="20" as="geometry" />
        </mxCell>
        <mxCell id="9J3qdg5ghptIugSKDytH-19" value="" style="endArrow=none;html=1;rounded=0;exitX=0;exitY=0.5;exitDx=0;exitDy=0;entryX=0;entryY=0.5;entryDx=0;entryDy=0;" parent="1" source="9J3qdg5ghptIugSKDytH-18" target="9J3qdg5ghptIugSKDytH-18" edge="1">
          <mxGeometry relative="1" as="geometry">
            <mxPoint x="270" y="130" as="sourcePoint" />
            <mxPoint x="140" y="70" as="targetPoint" />
            <Array as="points">
              <mxPoint x="80" y="50" />
            </Array>
          </mxGeometry>
        </mxCell>
        <mxCell id="9J3qdg5ghptIugSKDytH-22" value="email" style="ellipse;shape=doubleEllipse;margin=3;whiteSpace=wrap;html=1;align=center;rounded=0;fillColor=#f8cecc;strokeColor=#b85450;" parent="1" vertex="1">
          <mxGeometry x="-120" y="10" width="100" height="30" as="geometry" />
        </mxCell>
        <mxCell id="9J3qdg5ghptIugSKDytH-23" value="phone" style="ellipse;shape=doubleEllipse;margin=3;whiteSpace=wrap;html=1;align=center;rounded=0;fillColor=#f8cecc;strokeColor=#b85450;" parent="1" vertex="1">
          <mxGeometry x="90" y="100" width="90" height="30" as="geometry" />
        </mxCell>
        <mxCell id="9J3qdg5ghptIugSKDytH-27" value="restaurant" style="whiteSpace=wrap;html=1;align=center;" parent="1" vertex="1">
          <mxGeometry x="580" y="30" width="100" height="40" as="geometry" />
        </mxCell>
        <mxCell id="9J3qdg5ghptIugSKDytH-28" value="restaurant_id" style="ellipse;whiteSpace=wrap;html=1;align=center;fontStyle=4;" parent="1" vertex="1">
          <mxGeometry x="325" y="200" width="100" height="40" as="geometry" />
        </mxCell>
        <mxCell id="9J3qdg5ghptIugSKDytH-29" value="&amp;nbsp;name&lt;div&gt;&lt;br&gt;&lt;/div&gt;" style="ellipse;whiteSpace=wrap;html=1;align=center;" parent="1" vertex="1">
          <mxGeometry x="440" y="95" width="100" height="25" as="geometry" />
        </mxCell>
        <mxCell id="9J3qdg5ghptIugSKDytH-30" value="location" style="ellipse;whiteSpace=wrap;html=1;align=center;" parent="1" vertex="1">
          <mxGeometry x="420" y="30" width="100" height="30" as="geometry" />
        </mxCell>
        <mxCell id="9J3qdg5ghptIugSKDytH-31" value="rating" style="ellipse;whiteSpace=wrap;html=1;align=center;" parent="1" vertex="1">
          <mxGeometry x="225" y="290" width="100" height="40" as="geometry" />
        </mxCell>
        <mxCell id="9J3qdg5ghptIugSKDytH-33" value="cuisine" style="ellipse;whiteSpace=wrap;html=1;align=center;" parent="1" vertex="1">
          <mxGeometry x="740" y="70" width="100" height="30" as="geometry" />
        </mxCell>
        <mxCell id="9J3qdg5ghptIugSKDytH-35" value="" style="line;strokeWidth=1;rotatable=0;dashed=0;labelPosition=right;align=left;verticalAlign=middle;spacingTop=0;spacingLeft=6;points=[];portConstraint=eastwest;" parent="1" vertex="1">
          <mxGeometry x="520" y="40" width="60" height="10" as="geometry" />
        </mxCell>
        <mxCell id="9J3qdg5ghptIugSKDytH-37" value="" style="endArrow=none;html=1;entryX=0.967;entryY=0.1;entryDx=0;entryDy=0;entryPerimeter=0;exitX=1;exitY=0;exitDx=0;exitDy=0;" parent="1" source="9J3qdg5ghptIugSKDytH-29" target="9J3qdg5ghptIugSKDytH-35" edge="1">
          <mxGeometry width="50" height="50" relative="1" as="geometry">
            <mxPoint x="400" y="150" as="sourcePoint" />
            <mxPoint x="454.4374730957243" y="110.93750708007269" as="targetPoint" />
            <Array as="points" />
          </mxGeometry>
        </mxCell>
        <mxCell id="9J3qdg5ghptIugSKDytH-40" value="" style="endArrow=none;html=1;" parent="1" edge="1">
          <mxGeometry width="50" height="50" relative="1" as="geometry">
            <mxPoint x="740" y="90" as="sourcePoint" />
            <mxPoint x="700" y="100" as="targetPoint" />
            <Array as="points">
              <mxPoint x="680" y="70" />
            </Array>
          </mxGeometry>
        </mxCell>
      </root>
    </mxGraphModel>
  </diagram>
</mxfile>
